<svg xmlns="http://www.w3.org/2000/svg" width="128" height="128" xml:space="preserve"><path fill="#282D33" d="M82.471 113.926h-7.434v-4.008h4.2l.95-4.393 1.271-.269a32.857 32.857 0 0 0 5.24-1.576l1.286-.507 3.072 3.374 6.718-3.844-1.545-4.74.939-.872a33.246 33.246 0 0 0 3.393-3.665l.86-1.086 4.901 1.571 3.868-6.643-4.204-3.769.357-1.215c.419-1.419.74-2.868.956-4.306l.206-1.375 5.658-1.203.002-7.659-6.17-1.311-.3-1.222a32.106 32.106 0 0 0-1.161-3.716l-.488-1.286 4.704-4.213-3.866-6.643-6.435 2.061-.865-.908a32.819 32.819 0 0 0-2.598-2.444l-1.029-.87 2.056-6.311-6.714-3.847-4.62 5.071-1.22-.382a33.333 33.333 0 0 0-3.405-.868l-1.288-.257L78.36 34.1h-4.196v-4.008h7.43l1.541 7.115c.433.103.862.212 1.288.328l5.08-5.577 12.333 7.064-2.238 6.873c.339.308.673.623 1 .943l7.133-2.284 7.131 12.249-5.109 4.573c.186.551.356 1.102.514 1.652l6.91 1.467-.002 14.153-6.144 1.305c-.143.747-.31 1.495-.5 2.236l4.769 4.275-7.131 12.245-5.355-1.716a37.877 37.877 0 0 1-1.985 2.14l1.769 5.429-12.336 7.059-3.395-3.728c-1.09.383-2.193.714-3.304.991l-1.092 5.042zm-7.993-20.504v-4.008c9.082 0 16.471-7.318 16.471-16.313 0-8.998-7.389-16.318-16.471-16.318v-4.009c11.292 0 20.479 9.118 20.479 20.327-.001 11.205-9.187 20.321-20.479 20.321zM64.202 128H8.627c-3.294 0-5.973-2.665-5.973-5.941V5.939C2.654 2.664 5.333 0 8.627 0h55.576c3.294 0 5.974 2.664 5.974 5.939v116.119c-.003 3.277-2.684 5.942-5.975 5.942zM8.627 4.008c-1.083 0-1.965.867-1.965 1.932v116.119c0 1.066.882 1.933 1.965 1.933h55.575c1.083 0 1.964-.866 1.964-1.933l.002-116.12c0-1.064-.881-1.932-1.965-1.932H8.627z"/><path fill="#282D33" d="M11.524 106.279h49.783v4.008H11.524zM11.524 18.015h49.783v4.008H11.524zM25.806 8.792h21.218V12.8H25.806zM33.824 113.727h5.182v4.009h-5.182zM111.895 105.825h4.008v20.426h-4.008z"/><path fill="#282D33" d="M103.601 114.035h20.596v4.008h-20.596zM125.346 23.282h-3.973v-4.008l3.973.036zM117.49 23.282h-3.951v-4.008h3.951v4.008zm-7.902 0h-3.952v-4.008h3.952v4.008zm-7.903 0h-3.951v-4.008h3.951v4.008zm-7.903 0H89.83v-4.008h3.952v4.008zm-7.903 0h-3.951v-4.008h3.951v4.008zM78.664 23.282h-3.973V19.31h4.008zM74.691 9.283h4.008v5.057h-4.008zM78.664 4.437l-3.973-.035V.429h3.973zM118.109 4.437h-3.951V.429h3.951v4.008zm-7.902 0h-3.952V.429h3.952v4.008zm-7.903 0h-3.951V.429h3.951v4.008zm-7.903 0h-3.952V.429h3.952v4.008zm-7.903 0h-3.951V.429h3.951v4.008zM123.342 4.437l-2.004-.035.035-3.973h3.973v3.973zM121.338 9.371h4.008v5.058h-4.008z"/><g><path fill="#282D33" d="M22.594 83.412h27.643v4.008H22.594z"/></g><g><path fill="#282D33" d="M25.186 92.833h22.46v4.008h-22.46z"/></g><g><path fill="#282D33" d="M44.189 62.12v-4.008c1.753 0 3.18-1.406 3.18-3.135V39.559c0-1.729-1.427-3.135-3.18-3.135H28.641c-1.753 0-3.18 1.406-3.18 3.135v15.419c0 1.729 1.427 3.135 3.18 3.135v4.008c-3.963 0-7.188-3.204-7.188-7.143V39.559c0-3.938 3.225-7.144 7.188-7.144H44.19c3.963 0 7.188 3.205 7.188 7.144v15.419c-.001 3.938-3.226 7.142-7.189 7.142z"/></g><g><path fill="#282D33" d="M46.421 72.419h-20.01l10.006-17.184 10.004 17.184zm-13.04-4.008h6.068L36.415 63.2l-3.034 5.211z"/><path fill="#282D33" d="M35.172 71.208h4.008v7.539h-4.008z"/></g></svg>