<svg xmlns="http://www.w3.org/2000/svg" xml:space="preserve" width="655.359" height="655.359" style="shape-rendering:geometricPrecision;text-rendering:geometricPrecision;image-rendering:optimizeQuality;fill-rule:evenodd;clip-rule:evenodd" viewBox="0 0 6.827 6.827"><defs><style>.fil3{fill:#2d2d2d}.fil7{fill:#be1e2d}.fil10{fill:#c1c1c1}.fil9{fill:#9900cc}.fil4{fill:#fff}</style></defs><g id="Layer_x0020_1"><g id="_588466032"><g id="Layer_17"><path id="_620620808" d="M4.66 5.893H2.167a.219.219 0 0 1-.219-.218V1.152c0-.12.098-.219.219-.219H4.66c.12 0 .219.098.219.219v4.523c0 .12-.098.218-.22.218z" style="fill:#222025"/><path id="_620620544" d="M3.641 5.633h-.456a.08.08 0 0 1 0-.16h.456a.08.08 0 0 1 0 .16z" style="fill:#9900cc"/><path id="_620621144" style="fill:#9900cc" d="M2.094 1.338h2.638V5.18H2.094z"/><circle id="_620620064" class="fil3" cx="3.413" cy="5.537" r=".193"/><circle id="_620619176" class="fil3" cx="2.949" cy="1.136" r=".048"/><path id="_620618984" class="fil3" d="M3.882 1.184h-.657a.044.044 0 0 1-.044-.044v-.003c0-.024.02-.044.044-.044h.657c.024 0 .044.02.044.044v.003c0 .024-.02.044-.044.044z"/><g><path id="_620618000" class="fil4" d="M2.184 2.282h2.458v1.954H2.184z"/><path id="_620617496" style="fill:#000" d="M2.261 2.373h2.304v1.493H2.261z"/><path id="_620617232" d="M4.432 3.665H2.395a.012.012 0 1 1 0-.024h2.037c.007 0 .012.005.012.012a.012.012 0 0 1-.012.012z" style="fill:#6d6e71"/><path id="_620616872" class="fil7" d="M3.511 3.665H2.395a.012.012 0 1 1 0-.024H3.51v.024z"/><circle id="_620616512" class="fil7" cx="3.511" cy="3.653" r=".025"/><circle id="_620615264" cx="3.413" cy="3.12" r=".171" style="fill:#333"/><path id="_620614952" class="fil4" d="m3.501 3.12-.14-.08v.16z"/><path id="_620614424" class="fil4" d="M2.404 3.734h.019v.053h-.019z"/><path id="_620613200" class="fil4" d="M2.441 3.734h.019v.053h-.019z"/><path id="_620611640" class="fil4" d="M2.575 3.734h.007v.053h-.007z"/><path id="_588496632" class="fil4" d="m2.575 3.76-.046-.026v.053z"/><path id="_588466512" class="fil4" d="m2.681 3.734-.015.014H2.65v.024h.015l.015.014z"/><path id="_588465144" class="fil4" d="M2.688 3.773V3.77a.01.01 0 0 0 0-.02v-.003a.013.013 0 0 1 0 .026z"/><path id="_588465480" class="fil4" d="M2.688 3.788v-.003a.025.025 0 0 0 0-.05v-.003a.028.028 0 0 1 0 .056z"/><g><path id="_588464712" class="fil9" d="M4.163 4.114h.281v.053h-.281z"/></g><g><path id="_588464568" class="fil10" d="M2.261 3.94h.622v.053h-.622z"/></g><g><path id="_588496032" class="fil10" d="M3.943 3.94h.622v.053h-.622z"/></g><g><path id="_588496296" class="fil10" d="M4.5 4.114h.066v.053H4.5z"/></g><g><path id="_588495288" class="fil10" d="M2.261 4.006h.348v.031h-.348z"/></g><g><circle id="_588494592" class="fil9" cx="2.306" cy="4.131" r=".045"/><circle id="_588494928" class="fil4" cx="2.306" cy="4.118" r=".014"/><path id="_588493872" class="fil4" d="M2.306 4.174a.042.042 0 0 0 .029-.011c-.002-.013-.014-.022-.03-.022-.014 0-.027.01-.028.022a.043.043 0 0 0 .029.011z"/><g><path id="_588493056" class="fil10" d="M2.387 4.098h.269v.031h-.269z"/><path id="_588492216" class="fil10" d="M2.387 4.145h.269v.02h-.269z"/></g></g></g></g></g></g><path style="fill:none" d="M0 0h6.827v6.827H0z"/></svg>
