<svg xmlns="http://www.w3.org/2000/svg" viewBox="0 0 256 256"><defs><style>.cls-1{fill:#1d384d}</style></defs><g id="icons_without_caption" data-name="icons without caption"><g id="DATA_MINING" data-name="DATA MINING"><path class="cls-1" d="M33.78 52.07v151.86h119.38v-33.38l-4 4v25.39H37.78V56.07h111.38v110.42l4-4V52.07z"/><path class="cls-1" d="M53.17 140.56h81.17v4H53.17zM52.91 158.73h71.89v4H52.91zM52.91 176.91h56.77v4H52.91zM52.17 89.3v35.6h17.3V89.3zm13.3 31.6h-9.3V93.3h9.3zM74.46 89.3v35.6h17.3V89.3zm13.3 31.6h-9.3V93.3h9.3zM96.75 102v22.92H114V102zM110 120.91h-9.3V106h9.3zM119 72.78v52.12h17.3V72.78zm13.3 48.12H123V76.78h9.3zM201.86 108.13l-5.08 5.07-2.82 2.83 2.83 2.83 2.82-2.83 2.25-2.25 4.03 4.03-2.25 2.25-2.82 2.83 2.83 2.83 2.82-2.83 5.08-5.08-9.69-9.68zM192.94 130.76l-39.78 39.78-4 4-23.23 23.24-4.03-4.03 67.01-67.02 2.83-2.82-2.83-2.83-72.67 72.67 9.69 9.69 72.67-72.68-2.83-2.82-2.83 2.82zM153.16 99.34a18 18 0 0 0-1.86.87l.82 3.74c.35 0 .7.06 1 .11 16.77 1.87 28.95 15.85 29.07 16h.11l2.83.12 1.41-1.42 5.05-5 1.41-1.42v-2.82C184.86 101.28 175.36 97 165.58 97a33.28 33.28 0 0 0-12.42 2.34zm30.64 16.53c-3.29-3.35-11.83-11.1-23.43-14.45a30.23 30.23 0 0 1 5.21-.46c8.26 0 16.05 3.35 23.19 9.95zM209.78 126.21H207l-1.42 1.41-5 5.05-1.42 1.41.12 2.83v.09c.14.12 14.7 12.81 16.1 30.11l3.74.82c.04-.19 11.33-21.05-9.34-41.72zm8.08 32.79c-3.33-11.66-11.11-20.24-14.48-23.54l5-5c10.24 11.13 10.71 21.82 9.48 28.54z"/><path class="cls-1" d="m203.51 119.94-3.9-3.94-6.61-6.53h-2.83l-7.87 7.87v2.83l3.74 3.74 2.83 2.83 4 4 2.83 2.83 3.31 3.31h2.83l1.47-1.46 5-5 1.44-1.44v-2.83zm-3 12.72-4.73-4.73-4-4-5.16-5.16 5.05-5L194 116l2.83 2.83 4 4 2.83 2.83 1.89 1.89z"/></g></g></svg>