<svg xmlns="http://www.w3.org/2000/svg" viewBox="0 0 512.001 512.001" style="enable-background:new 0 0 512.001 512.001" xml:space="preserve"><path style="fill:#5d6a7c" d="M440.034 8.514H16.65a8.571 8.571 0 0 0-8.571 8.571v374.949a8.571 8.571 0 0 0 8.571 8.571h478.7a8.571 8.571 0 0 0 8.571-8.571V17.085a8.571 8.571 0 0 0-8.571-8.571h-28.385"/><path style="fill:#6ac6d8" d="M40.028 39.752h431.947v256.367H40.028z"/><circle style="fill:#fff" cx="413.107" cy="116.227" r="12.567"/><circle style="fill:#fff" cx="95.341" cy="246.662" r="12.567"/><circle style="fill:#fff" cx="158.894" cy="205.729" r="12.567"/><circle style="fill:#fff" cx="222.447" cy="217.481" r="12.567"/><circle style="fill:#fff" cx="286" cy="149.77" r="12.567"/><circle style="fill:#fff" cx="349.554" cy="167.931" r="12.567"/><path style="fill:#e5e4e4" d="M40.028 39.752h431.947v30.161H40.028z"/><path style="fill:#dd5136" d="M40.028 39.752h42.744v30.161H40.028z"/><path style="fill:#e0dcdc" d="M98.57 328.554H8.079v63.481a8.571 8.571 0 0 0 8.571 8.571h478.7a8.571 8.571 0 0 0 8.571-8.571v-63.481H123.345"/><circle style="fill:#ada6a6" cx="256.001" cy="363.503" r="12.567"/><path style="fill:#c9c7c7" d="M309.447 478.019H202.553l11.878-77.414h85.778z"/><path style="fill:#e0dcdc" d="M338.292 478.019H173.709c-6.752 0-12.224 5.473-12.224 12.224v1.019c0 6.751 5.472 12.224 12.224 12.224H338.292c6.752 0 12.224-5.473 12.224-12.224v-1.019c-.002-6.75-5.474-12.224-12.224-12.224z"/><path style="fill:#00ddc1" d="M452.962 5.821h21.543v5.386h-21.543z"/><path style="fill:#231f20" d="M413.105 95.586c-11.384 0-20.645 9.262-20.645 20.646 0 1.983.297 3.896.822 5.713l-34.1 27.742a20.519 20.519 0 0 0-9.63-2.397c-6.466 0-12.241 2.993-16.029 7.661l-27.051-7.734c-1.262-10.184-9.953-18.097-20.473-18.097-11.384 0-20.645 9.262-20.645 20.646 0 2.959.638 5.768 1.763 8.316l-37.577 40.041a20.516 20.516 0 0 0-7.094-1.282c-7.172 0-13.496 3.681-17.198 9.248l-26.214-4.851c-2.057-9.23-10.299-16.157-20.141-16.157-11.384 0-20.645 9.262-20.645 20.646 0 1.189.123 2.348.317 3.482l-31.634 20.376a20.533 20.533 0 0 0-11.59-3.572c-11.384 0-20.645 9.262-20.645 20.646s9.262 20.646 20.645 20.646c11.385 0 20.647-9.263 20.647-20.646 0-1.189-.123-2.349-.318-3.484l31.633-20.375a20.525 20.525 0 0 0 11.59 3.572c7.173 0 13.497-3.681 17.199-9.248l26.215 4.851c2.057 9.23 10.298 16.157 20.139 16.157 11.385 0 20.647-9.262 20.647-20.646 0-2.959-.638-5.768-1.763-8.316l37.577-40.041a20.509 20.509 0 0 0 7.092 1.282c6.466 0 12.242-2.992 16.032-7.661l27.051 7.734c1.262 10.184 9.952 18.097 20.471 18.097 11.385 0 20.647-9.262 20.647-20.646 0-1.984-.297-3.896-.822-5.713l34.099-27.742a20.512 20.512 0 0 0 9.629 2.397c11.385 0 20.647-9.262 20.647-20.646-.001-11.383-9.264-20.645-20.648-20.645zM95.338 251.147a4.494 4.494 0 0 1-4.488-4.489 4.494 4.494 0 0 1 4.488-4.489 4.495 4.495 0 0 1 4.49 4.489 4.494 4.494 0 0 1-4.49 4.489zm63.554-40.932a4.494 4.494 0 0 1-4.488-4.489 4.494 4.494 0 0 1 4.488-4.489c2.475 0 4.49 2.013 4.49 4.489s-2.015 4.489-4.49 4.489zm63.553 11.759a4.494 4.494 0 0 1-4.488-4.489 4.493 4.493 0 0 1 4.488-4.488 4.494 4.494 0 0 1 4.49 4.488 4.495 4.495 0 0 1-4.49 4.489zm63.553-67.72a4.493 4.493 0 0 1-4.487-4.489 4.494 4.494 0 0 1 4.487-4.489 4.495 4.495 0 0 1 4.49 4.489 4.495 4.495 0 0 1-4.49 4.489zm63.553 18.17a4.493 4.493 0 0 1-4.487-4.489 4.494 4.494 0 0 1 4.487-4.489 4.495 4.495 0 0 1 4.49 4.489 4.494 4.494 0 0 1-4.49 4.489zm63.554-51.704a4.493 4.493 0 0 1-4.487-4.489 4.494 4.494 0 0 1 4.487-4.489 4.495 4.495 0 0 1 4.49 4.489 4.495 4.495 0 0 1-4.49 4.489z"/><path style="fill:#231f20" d="M495.35.435h-28.385c-4.463 0-8.079 3.617-8.079 8.079s3.616 8.079 8.079 8.079h28.386c.271 0 .492.221.492.492v303.39H123.345a8.079 8.079 0 1 0 0 16.158h372.498v55.402a.493.493 0 0 1-.492.492H16.65a.493.493 0 0 1-.492-.492v-55.402H98.57a8.078 8.078 0 0 0 8.079-8.079 8.078 8.078 0 0 0-8.079-8.079H16.158V17.085c0-.271.221-.492.492-.492h423.384c4.463 0 8.079-3.617 8.079-8.079S444.497.435 440.034.435H16.65C7.469.435 0 7.904 0 17.085v374.95c0 9.181 7.469 16.65 16.65 16.65h188.369l-9.399 61.257h-21.91c-11.195 0-20.303 9.107-20.303 20.303v1.019c0 11.195 9.108 20.303 20.303 20.303h164.582c11.195 0 20.303-9.107 20.303-20.303v-1.019c0-11.194-9.107-20.303-20.303-20.303H316.62l-7.31-61.257h186.041c9.181 0 16.65-7.469 16.65-16.65V17.085C512 7.904 504.532.435 495.35.435zM342.436 490.243v1.019a4.15 4.15 0 0 1-4.145 4.145H173.709a4.15 4.15 0 0 1-4.145-4.145v-1.019a4.15 4.15 0 0 1 4.145-4.145h135.737a.08.08 0 0 1 .022 0h28.823a4.148 4.148 0 0 1 4.145 4.145zm-42.089-20.302h-88.382l9.399-61.257h71.673l7.31 61.257z"/><path style="fill:#231f20" d="M40.028 31.673a8.078 8.078 0 0 0-8.079 8.079V296.119a8.078 8.078 0 0 0 8.079 8.079h431.947a8.078 8.078 0 0 0 8.079-8.079V39.752a8.078 8.078 0 0 0-8.079-8.079H40.028zm8.079 16.158h26.587v14.003H48.107V47.831zm0 240.21V77.992h415.789v210.049H48.107zM463.896 61.834H90.851V47.831h373.045v14.003zM276.646 363.502c0-11.384-9.262-20.646-20.645-20.646-11.385 0-20.647 9.263-20.647 20.646 0 11.384 9.263 20.646 20.647 20.646 11.385 0 20.645-9.263 20.645-20.646zm-25.135 0a4.495 4.495 0 0 1 4.49-4.489 4.494 4.494 0 0 1 4.488 4.489 4.494 4.494 0 0 1-4.488 4.489 4.495 4.495 0 0 1-4.49-4.489z"/><g style="opacity:.1"><path style="fill:#231f20" d="M16.244 12.798h17.235v383.237H16.244z"/></g><g style="opacity:.1"><path transform="rotate(-171.5 225.382 438.742)" style="fill:#231f20" d="M216.767 404.565H234v68.358h-17.233z"/></g><g style="opacity:.1"><path style="fill:#231f20" d="M48.069 42.628h17.235v243.237H48.069z"/></g></svg>