<svg xmlns="http://www.w3.org/2000/svg" width="128" height="128" xml:space="preserve"><path fill="#ffec61" d="m43.978 5.287 3.714 10.291-3.8 1.372-3.715-10.29zM24.168 15.941l6.982 8.385-3.106 2.587-6.982-8.385zM9.166 32.78l9.4 5.474-2.033 3.492-9.4-5.474zM.767 53.782l10.695 1.901-.707 3.979-10.695-1.9zM10.694 74.504l.705 3.98L.71 80.38.003 76.4zM16.346 92.465l2.033 3.493-9.399 5.47-2.033-3.492zM111.47 92.777l9.408 5.48-2.035 3.494-9.408-5.48zM117.24 74.864l10.69 1.895-.706 3.981-10.69-1.895zM127.291 54.148l.706 3.98-10.692 1.894-.705-3.98zM119.02 33.105l2.032 3.493-9.408 5.473-2.032-3.493zM104.114 16.182l3.106 2.586-6.982 8.387-3.106-2.585zM84.37 5.419l3.8 1.373-3.717 10.287-3.8-1.373z"/><g><path fill="#9900cc" d="M69.967 23.237h-11.67V1.875h11.67v21.362zm-7.63-4.041h3.589V5.916h-3.589v13.28zM64.129 39.272c-4.27 0-7.744-3.498-7.744-7.796h4.042c0 2.07 1.661 3.755 3.703 3.755 2.041 0 3.703-1.685 3.703-3.755 0-2.071-1.662-3.755-3.703-3.755V23.68c4.27 0 7.744 3.497 7.744 7.796-.001 4.298-3.475 7.796-7.745 7.796z"/><path fill="#9900cc" d="m45.615 56.936-3.094-2.602 20.062-23.857h3.093l20.06 23.857-3.093 2.602-18.514-22.019z"/><g><path fill="#9900cc" d="M82.969 126.125H44.348c-9.146 0-16.586-7.496-16.586-16.711V70.465c0-9.215 7.44-16.711 16.586-16.711h38.621c9.14 0 16.574 7.496 16.574 16.711v38.949c0 9.215-7.435 16.711-16.574 16.711zm-38.621-68.33c-6.917 0-12.544 5.683-12.544 12.67v38.949c0 6.986 5.627 12.67 12.544 12.67h38.621c6.91 0 12.533-5.684 12.533-12.67V70.465c0-6.987-5.623-12.67-12.533-12.67H44.348z"/></g><g><path fill="#9900cc" d="m66.219 110.663-3.794-.968V89.952h-22.33L54.106 54.24H81.26L68.31 72.867h18.55l-20.641 37.796zM46.021 85.91h20.446v15.869l13.582-24.871H60.58l12.948-18.627H56.862L46.021 85.91z"/></g></g></svg>
