<svg version="1.1" id="Layer_1" xmlns="http://www.w3.org/2000/svg" x="0" y="0" viewBox="0 0 64 64" style="enable-background:new 0 0 64 64" xml:space="preserve"><style>.st1,.st2,.st5{fill:#78909c;stroke:#37474f;stroke-linecap:round;stroke-linejoin:round;stroke-miterlimit:10}.st2,.st5{fill:#eceff1}.st5{fill:none}</style><path d="M.5 21.4v21c0 5.5 4.5 10 10 10h4c1.4 0 2.5 1.1 2.5 2.5V61c0 .9 1.1 1.3 1.7.7l7.8-7.8c.9-.9 2.2-1.5 3.5-1.5h13.4c5.5 0 10-4.5 10-10v-21c0-5.5-4.5-10-10-10h-33C5 11.4.5 15.9.5 21.4z" style="fill:#b0bec5;stroke:#37474f;stroke-linecap:round;stroke-linejoin:round;stroke-miterlimit:10"/><path class="st2" d="M.5 17.4v21c0 5.5 4.5 10 10 10h4c1.4 0 2.5 1.1 2.5 2.5V57c0 .9 1.1 1.3 1.7.7l7.8-7.8c.9-.9 2.2-1.5 3.5-1.5h13.4c5.5 0 10-4.5 10-10v-21c0-5.5-4.5-10-10-10h-33C5 7.4.5 11.9.5 17.4z"/><path d="M2.5 23.4v-6c0-4.4 3.6-8 8-8h6" style="fill:none;stroke:#fff;stroke-linecap:round;stroke-linejoin:round;stroke-miterlimit:10"/><path class="st5" d="M6.5 18.4h27M6.5 23.4h20M6.5 28.4h10"/><path d="m44.8 8-2.9 2.9c-1.1 1.1-1.4 2.6-1 4-.4.6-.6 1.2-.6 1.9L29.8 27.2c-.3.3-.5.8-.6 1.3l-3.3 3.3c-.3.3-.4.6-.5.9l-1.8 6.7c0 .2-.1.3-.1.5 0 .5.2 1 .6 1.4.4.4.9.6 1.4.6.2 0 .3 0 .5-.1l6.7-1.8c.3-.1.7-.3.9-.5l3.3-3.3c.5 0 .9-.2 1.3-.6l10.4-10.4c1-.1 2-.5 2.7-1.3l1.6-1.6v-5c.1-4.7-3.5-8.7-8.1-9.3z" style="fill:#b0bec5"/><path d="M62.3 3.2h0c1.6 1.6 1.6 4.1 0 5.7L36.9 34.3l-5.7-5.7L56.7 3.2c1.5-1.6 4.1-1.6 5.6 0z" style="fill:#ef5350;stroke:#37474f;stroke-linecap:round;stroke-linejoin:round;stroke-miterlimit:10"/><path class="st2" d="m31.6 29 4.9 4.9-4.2 4.3-6.7 1.7 1.7-6.7z"/><path class="st1" d="M43.2 15.2h0c-.8-.8-.8-2 0-2.8l7.1-7.1c.8-.8 2-.8 2.8 0v0l-9.9 9.9zM59.9 12.7 50 22.6c-1 1-2.6 1-3.5 0L43 19.1c-1-1-1-2.6 0-3.5l9.9-9.9c1-1 2.6-1 3.5 0l3.5 3.5c.9 1 .9 2.5 0 3.5zM26.7 35.5l-1.1 4.4 4.4-1.1z"/></svg>