<svg xmlns="http://www.w3.org/2000/svg" viewBox="0 0 2048 2048" style="enable-background:new 0 0 2048 2048" xml:space="preserve"><path style="fill:#9900cc" d="M1405.232 1760.36a24.694 24.694 0 0 1-17.518-7.256L1243.39 1608.78a24.775 24.775 0 0 1-7.256-17.518v-272.688c0-13.682 11.092-24.774 24.774-24.774s24.774 11.092 24.774 24.774V1581l137.067 137.067c9.674 9.675 9.674 25.361 0 35.036a24.693 24.693 0 0 1-17.517 7.257z"/><circle style="fill:#72b8ce" cx="1410.685" cy="1741.04" r="50.96"/><path style="fill:#9900cc" d="M644.489 1758.639c-6.34 0-12.68-2.418-17.518-7.256-9.675-9.675-9.675-25.361 0-35.036L762.318 1581v-262.426c0-13.682 11.092-24.774 24.774-24.774s24.774 11.092 24.774 24.774v272.688c0 6.571-2.61 12.872-7.256 17.518l-142.603 142.603a24.696 24.696 0 0 1-17.518 7.256z"/><circle style="fill:#72b8ce" cx="637.315" cy="1741.04" r="50.96"/><path style="fill:#9900cc" d="M1024.009 1611.355c-13.682 0-24.774-11.092-24.774-24.774v-267.914c0-13.682 11.092-24.821 24.774-24.821s24.774 11.045 24.774 24.728v268.007c-.001 13.682-11.092 24.774-24.774 24.774z"/><circle style="fill:#72b8ce" cx="1024.009" cy="1606.202" r="50.96"/><path style="fill:#bbecff" d="M579.063 1318.573c-175.76 0-318.249-142.489-318.249-318.263 0-87.887 35.629-167.446 93.209-225.04 57.594-57.594 137.167-93.209 225.04-93.209h18.876C597.939 446.748 788.688 256 1024 256s426.061 190.748 426.061 426.061h18.876c175.76 0 318.25 142.475 318.25 318.249 0 87.887-35.629 167.446-93.209 225.054-57.594 57.58-137.167 93.209-225.04 93.209H579.063z"/></svg>
