<svg xmlns="http://www.w3.org/2000/svg" xml:space="preserve" width="2048" height="2048" style="shape-rendering:geometricPrecision;text-rendering:geometricPrecision;image-rendering:optimizeQuality;fill-rule:evenodd;clip-rule:evenodd"><defs><style>.fil2{fill:#fffffe;fill-rule:nonzero}</style></defs><g id="Layer_x0020_1"><rect width="2048" height="2048" rx="256.001" ry="256.001" style="fill:#9900cc"/><path style="fill:none" d="M256.001 255.999h1536v1536h-1536z"/><path class="fil2" d="M256.002 799.998H608.001V1824H224.002l-.001-32V831.999l.001-32.001zM1216 287.998h351.999v1194.481l-177.232-204.757a344.636 344.636 0 0 0 9.057-10.822c57.447-71.563 84.172-162.98 74.19-254.23-10.014-91.552-55.574-174.69-127.387-232.34A346.185 346.185 0 0 0 1184 708.34V287.997h32zm351.999 1389.77v146.238h-384V1392.09c37.184-5.866 73.053-17.676 106.348-35.093l277.651 320.771zm-832-1261.77h351.999v290.65c-89.816 10.973-171.218 56.218-227.942 126.88-56.495 70.374-74.633 159.988-74.633 248.32v1.888l.44 4.024c10.015 91.553 55.576 174.688 127.389 232.337 50.798 40.779 111.618 61.572 174.748 69.985v433.92H704V416.001h32z"/><path class="fil2" d="M1095.88 737.947c86.15-9.424 168.014 17 230.718 67.337 62.682 50.32 106.174 124.586 115.611 210.866 9.424 86.15-16.998 168.013-67.336 230.718a315.566 315.566 0 0 1-27.292 29.852l372.548 430.405-48.25 41.75-374.592-432.766c-39.085 24.638-84.241 41.007-133.282 46.371l-2.29.25h-.142c-85.258 8.668-166.173-17.722-228.286-67.587-62.681-50.318-106.172-124.584-115.611-210.864l-.25-2.289v-.143c-8.669-85.259 17.723-166.175 67.586-228.288 50.32-62.682 124.586-106.174 210.867-115.612zm190.719 117.087c-49.926-40.08-115.197-61.11-183.967-53.587-68.643 7.51-127.769 42.161-167.868 92.111-40.08 49.926-61.108 115.197-53.585 183.967l.004.043c7.518 68.625 42.166 127.735 92.105 167.824 49.925 40.08 115.194 61.109 183.965 53.586l.043-.005c68.625-7.517 127.737-42.165 167.828-92.106 40.08-49.927 61.109-115.197 53.585-183.967-7.508-68.64-42.158-127.767-92.11-167.867z"/></g></svg>
