<svg xmlns="http://www.w3.org/2000/svg" xml:space="preserve" width="2048" height="2048" style="shape-rendering:geometricPrecision;text-rendering:geometricPrecision;image-rendering:optimizeQuality;fill-rule:evenodd;clip-rule:evenodd"><defs><style>.fil0{fill:#9900cc}</style></defs><g id="Layer_x0020_1"><g id="_246794120"><path id="_246794264" class="fil0" d="M1792 1376.43c0 77.234-243.486 139.844-543.84 139.844-86.999 0-169.211-5.26-242.129-14.602 14.06-27.194 20.84-57.93 20.84-88.852 0-22.175-3.851-44.161-11.437-64.825 70.942 8.282 149.736 12.897 232.726 12.897 259.855 0 478.602-45.217 543.84-106.717v122.256z"/><ellipse id="_246794552" class="fil0" cx="1248.16" cy="630.586" rx="543.841" ry="139.845"/><path id="_246794192" class="fil0" d="M1792 1189.97c0 77.235-243.486 139.845-543.84 139.845-89.835 0-174.573-5.606-249.241-15.524-.418-.667-.84-1.333-1.267-1.994-12.796-19.799-29.488-36.858-49.168-49.69-10.591-42.707-33.674-81.388-66.391-111.121a224.31 224.31 0 0 0-20.448-16.506c100.902 24.46 236.892 39.452 386.515 39.452 259.855 0 478.602-45.217 543.84-106.72v122.257z"/><path id="_246794144" class="fil0" d="M1792 1003.51c0 77.235-243.487 139.845-543.841 139.845-300.353 0-543.84-62.61-543.84-139.845V881.254c65.238 61.502 283.987 106.719 543.84 106.719 259.855 0 478.603-45.216 543.841-106.719v122.256z"/><path id="_246794024" class="fil0" d="M1792 817.046c0 77.235-243.487 139.845-543.841 139.845-300.353 0-543.84-62.61-543.84-139.845V694.79c65.238 61.502 283.987 106.719 543.84 106.719 259.855 0 478.603-45.216 543.841-106.719v122.256z"/><path id="_246794048" class="fil0" d="M995.878 1412.82c0-31.157-9.002-60.097-24.258-83.7-12.872-19.92-30.268-36.089-50.59-46.719-7.605-42.525-29.174-80.163-59.782-107.98-34.102-30.992-79.355-49.884-128.97-49.884-49.26 0-94.215 18.615-128.227 49.2-24.83 22.33-43.798 51.096-54.312 83.697a159.304 159.304 0 0 0-10.727-4.142c-16.193-5.587-33.344-8.623-50.948-8.623-27.239 0-52.905 7.021-75.288 19.36-19.165 10.562-35.89 25.066-49.094 42.427-28.255 4.144-53.456 17.642-72.346 37.243-21.88 22.7-35.336 53.526-35.336 87.44 0 29.325 10.054 56.35 26.915 77.82a126.202 126.202 0 0 0 57.414 41.103 26.585 26.585 0 0 0 18.222 7.195H487.66c.229.004.458.002.688 0h376.177c.244.002.487.004.731-.001 38.674-.049 71.188-15.929 94.33-42.1 23.065-26.088 36.293-62.145 36.293-102.337z"/></g></g><path style="fill:none" d="M0 0h2048v2048H0z"/></svg>
