<svg xmlns="http://www.w3.org/2000/svg" width="1169" height="829" viewBox="0 0 1169 829" version="1.1"><path d="M 23.240 21.259 C 12.658 31.852, 4 40.852, 4 41.259 C 4 41.667, 46.192 42, 97.759 42 L 191.519 42 211.509 21.750 L 231.500 1.500 211.491 21.250 L 191.482 41 98 41 L 4.519 41 24 21.500 C 34.714 10.775, 43.256 2, 42.981 2 C 42.706 2, 33.823 10.667, 23.240 21.259 M 389 44.258 L 389 55 318.500 55 L 248 55 248 78.500 L 248 102 318.466 102 L 388.932 102 389.216 112.512 L 389.500 123.024 411.750 100.754 L 434 78.484 411.500 56 L 389 33.517 389 44.258 M 2 105 L 2 166 96.500 166 L 191 166 191 105 L 191 44 96.500 44 L 2 44 2 105 M 730 81.445 L 730 109 795.750 109.015 C 851.026 109.027, 862.527 109.272, 867.944 110.548 C 883.543 114.225, 896.778 127.470, 900.459 143.088 C 902.667 152.457, 902.708 234.861, 900.508 243.307 C 896.991 256.812, 888.686 266.860, 876.055 272.892 L 868.500 276.500 826.750 276.791 L 785 277.083 785 263.794 L 785 250.505 757.752 277.752 L 730.505 305 757.752 332.248 L 785 359.495 785 345.804 L 785 332.113 829.750 331.764 C 871.961 331.435, 874.938 331.293, 882.224 329.255 C 916.392 319.700, 942.495 294.660, 952.353 261.983 C 956.727 247.482, 957.165 240.080, 956.767 187.439 C 956.396 138.509, 956.396 138.498, 953.816 128.989 C 944.036 92.932, 918.134 67.025, 882.011 57.169 L 872.500 54.573 801.250 54.232 L 730 53.890 730 81.445 M 277.500 292.467 C 267.063 294.122, 262.600 295.392, 253.031 299.428 C 229.147 309.501, 208.757 330.772, 199.669 355.098 C 193.604 371.332, 193.497 372.651, 193.529 431 L 193.559 484.500 196.280 494.500 C 206.523 532.134, 235.086 559.344, 272.500 567.106 C 280.443 568.754, 286.402 568.975, 323.250 568.987 L 365 569 365 582.748 L 365 596.495 392.248 569.248 L 419.495 542 392.248 514.752 L 365 487.505 365 500.752 L 365 514 325.182 514 C 282.090 514, 280.288 513.814, 270.557 508.376 C 260.175 502.573, 251.225 490.005, 249.005 478.114 C 248.429 475.024, 248.006 454.338, 248.015 429.614 C 248.031 381.505, 248.395 378.034, 254.459 368.088 C 258.647 361.219, 263.827 356.154, 270.855 352.052 C 281.062 346.097, 281.976 346.031, 354.250 346.015 L 420 346 420 318.500 L 420 291 352.750 291.099 C 303.712 291.171, 283.333 291.542, 277.500 292.467 M 658.005 469.495 L 638.529 488.990 543.515 489.250 L 448.500 489.510 543.509 489.755 L 638.519 490 658.500 470 C 669.490 459, 678.256 450, 677.981 450 C 677.706 450, 668.717 458.773, 658.005 469.495 M 658.750 471.750 L 639 491.518 639 552.506 L 639 613.494 659.008 593.486 L 679.016 573.478 678.758 512.730 L 678.500 451.981 658.750 471.750 M 871 489.258 L 871 500 800.500 500 L 730 500 730 523.500 L 730 547 800.466 547 L 870.932 547 871.216 557.512 L 871.500 568.024 893.750 545.754 L 916 523.484 893.500 501 L 871 478.517 871 489.258 M 542.242 491.750 L 636.985 492.010 637.250 553.255 L 637.516 614.500 637.758 552.750 L 638 491 542.750 491.245 L 447.500 491.490 542.242 491.750" stroke="none" fill="#4472c4" fill-rule="evenodd"/><path d="M 482.500 22 L 463.520 41 556.520 41 L 649.520 41 668.500 22 L 687.480 3 594.480 3 L 501.480 3 482.500 22 M 670.750 24.750 L 652 43.519 652 103.006 L 652 162.494 671.008 143.485 L 690.016 124.477 689.758 65.229 L 689.500 5.980 670.750 24.750 M 460 105.500 L 460 166 554 166 L 648 166 648 105.500 L 648 45 554 45 L 460 45 460 105.500 M 320.200 648.200 C 319.397 649.003, 319 653.467, 319 661.700 C 319 668.465, 318.599 674, 318.109 674 C 317.619 674, 315.257 673.110, 312.859 672.022 C 302.177 667.175, 290.156 672.199, 285.443 683.482 C 284.528 685.673, 283.544 690.897, 283.256 695.092 C 281.517 720.473, 296.995 734.798, 316.122 725.510 C 319.686 723.780, 319.796 723.789, 322.924 726.102 C 325.888 728.293, 326.286 728.350, 328.802 726.938 L 331.500 725.424 331.762 688.262 L 332.024 651.100 329.824 649.050 C 327.389 646.782, 322.086 646.314, 320.200 648.200 M 640.667 647.667 C 640.300 648.033, 640 654.161, 640 661.283 C 640 675.991, 640.725 675.173, 631 671.429 C 623.032 668.361, 614.094 671.077, 608.645 678.221 C 602.927 685.718, 601.569 701.559, 605.627 713.433 C 608.021 720.439, 614.315 726.473, 620.643 727.830 C 626.055 728.991, 632.761 727.982, 636.352 725.466 C 639.088 723.550, 640.996 723.612, 642.498 725.667 C 643.923 727.615, 649.499 727.901, 651.283 726.117 C 652.195 725.205, 652.500 715.659, 652.500 688.055 C 652.500 653.226, 652.396 651.095, 650.595 649.105 C 648.734 647.048, 642.228 646.106, 640.667 647.667 M 874.280 650.999 C 870.016 652.756, 870.554 661.620, 875.071 664.038 C 880.019 666.686, 886 663.477, 886 658.174 C 886 653.093, 879.240 648.955, 874.280 650.999 M 174.200 653.200 C 172.524 654.876, 172.490 719.787, 174.163 723.458 C 175.898 727.266, 181.137 728.227, 198.032 727.838 C 214.013 727.470, 216 726.828, 216 722.033 C 216 716.855, 213.686 716, 199.671 716 L 187 716 187 705.607 C 187 697.052, 187.280 695.107, 188.582 694.607 C 189.452 694.273, 194.332 694, 199.427 694 C 207.131 694, 208.969 693.692, 210.345 692.171 C 212.651 689.623, 212.412 687.321, 209.545 684.455 C 207.264 682.173, 206.380 682, 197.007 682 L 186.922 682 187.211 673.250 L 187.500 664.500 199.957 664.218 C 209.758 663.995, 212.796 663.589, 214.207 662.313 C 216.557 660.186, 216.473 657.871, 213.927 654.635 L 211.855 652 193.627 652 C 180.784 652, 175.046 652.354, 174.200 653.200 M 494.571 653.571 C 493.206 654.937, 493 659.510, 493 688.516 L 493 721.888 495.413 724.694 L 497.827 727.500 515.502 727.500 C 532.871 727.500, 533.210 727.459, 535.088 725.139 C 537.476 722.190, 537.468 721.865, 534.927 718.635 C 532.879 716.031, 532.702 716, 519.927 716 L 507 716 507 705.607 C 507 697.052, 507.280 695.107, 508.582 694.607 C 509.452 694.273, 514.370 694, 519.510 694 C 526.674 694, 529.224 693.633, 530.429 692.429 C 532.806 690.051, 532.344 686.416, 529.365 684.073 C 527.104 682.294, 525.331 682, 516.865 682 L 507 682 507 673.607 C 507 666.876, 507.313 665.094, 508.582 664.607 C 509.452 664.273, 515.270 664, 521.510 664 C 530.492 664, 533.185 663.672, 534.429 662.429 C 536.680 660.177, 536.367 656.693, 533.686 654.174 C 531.490 652.112, 530.466 652, 513.757 652 C 499.077 652, 495.881 652.262, 494.571 653.571 M 684.035 653.934 C 682.525 656.756, 682.751 658.413, 685.042 661.327 C 686.923 663.717, 687.777 663.946, 695.792 664.212 L 704.500 664.500 704.765 693.900 L 705.031 723.299 707.567 725.650 C 710.233 728.121, 711.131 728.340, 714.687 727.386 C 718.468 726.372, 719 722.202, 719 693.551 C 719 673.767, 719.326 666.074, 720.200 665.200 C 720.936 664.464, 724.533 664, 729.500 664 C 734.467 664, 738.064 663.536, 738.800 662.800 C 740.742 660.858, 740.182 656.520, 737.686 654.174 C 735.436 652.061, 734.667 652, 710.221 652 C 686.379 652, 685.017 652.101, 684.035 653.934 M 373 664.443 L 373 670.885 368.750 671.193 C 364.968 671.466, 364.466 671.797, 364.188 674.201 C 363.747 678.029, 365.526 680.775, 369.536 682.451 L 373 683.898 373.054 699.199 C 373.118 717.051, 374.399 722.005, 379.916 725.723 C 385.239 729.309, 396.528 728.654, 399.235 724.600 C 400.520 722.675, 399.996 719.575, 397.975 717.149 C 396.212 715.033, 395.691 714.912, 392.758 715.939 C 389.858 716.954, 389.305 716.840, 387.724 714.897 C 386.172 712.990, 385.983 710.873, 386.224 698.107 L 386.500 683.500 391.769 682.857 C 397.793 682.122, 400 680.699, 400 677.552 C 400 673.813, 396.002 671, 390.686 671 L 386 671 386 667.135 C 386 661.237, 382.962 658, 377.427 658 L 373 658 373 664.443 M 837 664.443 L 837 670.885 832.750 671.193 C 828.968 671.466, 828.466 671.797, 828.188 674.201 C 827.747 678.029, 829.526 680.775, 833.536 682.451 L 837 683.898 837.054 699.199 C 837.118 717.051, 838.399 722.005, 843.916 725.723 C 849.239 729.309, 860.528 728.654, 863.235 724.600 C 864.520 722.675, 863.996 719.575, 861.975 717.149 C 860.255 715.085, 859.647 714.927, 856.980 715.857 C 850.611 718.078, 850.032 716.572, 850.014 697.719 C 850.004 687.543, 850.327 683.843, 851.250 683.576 C 851.938 683.377, 854.742 682.829, 857.483 682.357 C 861.655 681.639, 862.621 681.055, 863.421 678.765 C 864.216 676.487, 863.981 675.608, 862.014 673.515 C 860.141 671.521, 858.679 671, 854.956 671 L 850.260 671 849.748 666.459 C 849.051 660.270, 846.795 658, 841.345 658 L 837 658 837 664.443 M 248 670.682 C 247.175 670.970, 244.754 672.082, 242.620 673.155 L 238.739 675.104 236.479 672.980 C 234.888 671.486, 233.224 670.952, 230.859 671.178 L 227.500 671.500 227.234 697.664 L 226.967 723.829 229.690 725.971 C 231.586 727.462, 233.186 727.927, 234.957 727.502 C 239.614 726.382, 240 724.807, 240 706.925 L 240 690.233 243.975 686.642 C 250.264 680.960, 255.407 680.639, 258.737 685.721 C 260.101 687.803, 260.523 691.767, 260.960 706.598 C 261.258 716.715, 261.947 725.343, 262.500 725.882 C 264.698 728.028, 268.596 728.148, 271.063 726.147 C 273.484 724.183, 273.500 724.051, 273.458 706.335 C 273.414 687.494, 272.575 682.272, 268.825 677.505 C 264.758 672.334, 253.671 668.702, 248 670.682 M 420.759 671.423 C 408.888 675.660, 403.204 685.948, 404.223 701.354 C 405.343 718.288, 414.663 728.212, 429.500 728.270 C 438.702 728.305, 443.569 726.527, 448.907 721.180 C 455.168 714.908, 457.406 707.962, 456.813 696.650 C 456.101 683.090, 450.182 674.966, 438.438 671.431 C 432.567 669.664, 425.695 669.661, 420.759 671.423 M 564.476 672.462 C 559.641 674.910, 558.172 674.776, 555.898 671.681 C 555.567 671.230, 553.542 671.005, 551.398 671.181 L 547.500 671.500 547.234 697.664 L 546.967 723.829 549.618 725.914 C 552.783 728.404, 554.792 728.534, 557.777 726.443 C 559.926 724.938, 560 724.322, 560 707.826 L 560 690.765 563.817 686.947 C 568.404 682.361, 572.338 681.118, 575.916 683.126 C 580.402 685.644, 580.967 688.233, 581.017 706.500 C 581.070 725.890, 581.547 727.400, 587.624 727.400 C 593.528 727.400, 594 725.908, 594 707.252 C 594 683.452, 591.956 677.545, 581.971 672.485 C 575.768 669.342, 570.652 669.335, 564.476 672.462 M 749.764 670.996 C 742.453 673.197, 736.530 679.343, 733.993 687.362 C 733.244 689.728, 732.929 694.822, 733.178 700.514 C 733.521 708.370, 734.043 710.704, 736.557 715.619 C 741.824 725.917, 752.446 730.185, 767 727.851 C 772.895 726.905, 775.089 726.060, 777.250 723.901 C 780.534 720.620, 780.672 719.081, 777.960 715.954 L 775.921 713.603 769.546 715.301 C 756.454 718.790, 749.888 717.109, 747.162 709.571 C 744.935 703.412, 745.937 703, 763.122 703 C 776.667 703, 778.179 702.821, 780 701 C 784.103 696.897, 781.505 683.839, 775.364 677.697 C 769.165 671.499, 757.893 668.548, 749.764 670.996 M 799.500 671.441 C 791.493 674.394, 787.527 682.139, 789.924 690.140 C 791.676 695.987, 795.520 699.595, 805 704.290 C 814.634 709.061, 815.986 711.293, 811.420 714.885 C 807.950 717.614, 801.037 717.653, 795.141 714.978 C 789.124 712.248, 788 712.417, 788 716.050 C 788 720.036, 790.242 724.264, 793.165 725.789 C 799.321 729.001, 812.136 729.167, 817.777 726.107 C 820.927 724.398, 824.743 719.548, 825.978 715.685 C 828.787 706.899, 824.617 700.542, 812.318 694.860 C 803.949 690.993, 801.408 688.439, 802.502 684.993 C 803.348 682.327, 808.922 680.931, 813.701 682.188 C 822.012 684.374, 824.976 683.024, 823.631 677.667 C 822.208 671.995, 807.963 668.320, 799.500 671.441 M 915.476 672.462 C 910.641 674.910, 909.172 674.776, 906.898 671.681 C 906.567 671.230, 904.542 671.005, 902.398 671.181 L 898.500 671.500 898.234 697.664 L 897.967 723.829 900.618 725.914 C 903.725 728.358, 905.878 728.540, 908.559 726.583 C 910.318 725.300, 910.547 723.507, 911 707.504 L 911.500 689.842 915.201 686.452 C 919.783 682.256, 923.491 681.204, 926.916 683.126 C 931.402 685.644, 931.967 688.233, 932.017 706.500 C 932.070 725.809, 932.564 727.400, 938.506 727.400 C 944.353 727.400, 944.500 726.867, 944.500 705.698 C 944.500 681.175, 943.296 677.752, 932.783 672.401 C 926.771 669.341, 921.605 669.359, 915.476 672.462 M 966.655 671.475 C 956.975 674.886, 952.752 684.766, 956.141 696.077 C 957.083 699.221, 956.996 700.489, 955.641 703.344 C 953.591 707.664, 953.548 712.225, 955.521 716.040 C 956.958 718.820, 956.897 719.199, 954.393 722.983 C 952.149 726.373, 951.819 727.763, 952.232 732.067 C 952.848 738.471, 955.308 741.867, 961.501 744.859 C 965.602 746.840, 967.912 747.213, 975.942 747.192 C 986.616 747.164, 990.780 745.888, 996.449 740.911 C 1000.440 737.406, 1002.493 731.545, 1001.437 726.666 C 999.553 717.965, 992.352 713.863, 977.531 713.050 C 968.776 712.569, 967.476 712.265, 967.163 710.623 C 966.835 708.905, 967.274 708.804, 972.317 709.434 C 986.836 711.248, 998.006 701.825, 996.756 688.817 C 996.326 684.336, 996.524 683.763, 999.144 681.898 C 1002.430 679.558, 1002.853 676.278, 1000.250 673.310 C 998.712 671.557, 996.801 671.242, 984.500 670.717 C 973.997 670.269, 969.540 670.458, 966.655 671.475 M 872.607 672.582 C 872.273 673.452, 872 685.086, 872 698.436 L 872 722.708 874.452 725.354 C 877.250 728.373, 879.586 728.679, 882.777 726.443 C 884.973 724.906, 885 724.584, 885 699.982 C 885 675.650, 884.950 675.031, 882.811 673.039 C 880.100 670.513, 873.514 670.218, 872.607 672.582 M 973.500 681.749 C 970.423 682.466, 969.121 683.901, 968.060 687.744 C 967.345 690.334, 967.449 692.139, 968.452 694.539 C 971.898 702.786, 984 698.490, 984 689.020 C 984 683.673, 979.276 680.402, 973.500 681.749 M 302.353 683.926 C 298.312 686.390, 296.535 691.493, 296.582 700.500 C 296.621 708.096, 298.840 714.309, 302.144 716.077 C 305.248 717.738, 310.611 716.052, 314.942 712.053 L 319 708.307 319 698.841 C 319 689.802, 318.876 689.258, 316.250 686.809 C 310.653 681.589, 307.320 680.898, 302.353 683.926 M 425.030 683.222 C 415.603 688.210, 414.417 709.276, 423.217 715.439 C 428.234 718.953, 437.824 716.127, 441.369 710.091 C 442.408 708.321, 443.462 704.108, 443.744 700.599 C 444.662 689.159, 440.817 683.025, 432.283 682.314 C 429.502 682.082, 426.466 682.463, 425.030 683.222 M 622.514 684.168 C 618.619 687.232, 616.858 692.198, 616.883 700.051 C 616.934 716.309, 624.753 721.251, 635.482 711.807 L 640 707.830 639.978 699.165 C 639.953 689.529, 639.134 687.760, 633 684.097 C 628.544 681.437, 625.964 681.454, 622.514 684.168 M 751.954 683.282 C 749.805 684.975, 747 689.188, 747 690.723 C 747 691.682, 749.740 692, 758 692 C 768.469 692, 769 691.900, 769 689.923 C 769 688.781, 767.685 686.531, 766.077 684.923 C 763.640 682.486, 762.352 682.005, 758.327 682.032 C 755.672 682.049, 752.804 682.612, 751.954 683.282 M 967.576 726.333 C 964.775 729.134, 964.207 733.097, 966.351 734.876 C 968.482 736.645, 976.133 737.311, 980.575 736.114 C 985.654 734.747, 989.439 730.957, 988.543 728.136 C 987.765 725.686, 986.586 725.296, 977.326 724.428 C 970.519 723.791, 970.021 723.888, 967.576 726.333" stroke="none" fill="#000000" fill-rule="evenodd"/><path d="M 24 21.500 L 4.519 41 98.019 41 L 191.519 41 211 21.500 L 230.481 2 136.981 2 L 43.481 2 24 21.500 M 469 469.500 L 449.519 489 544.019 489 L 638.519 489 658 469.500 L 677.481 450 582.981 450 L 488.481 450 469 469.500 M 448 553 L 448 614 542.500 614 L 637 614 637 553 L 637 492 542.500 492 L 448 492 448 553" stroke="none" fill="#7bafdd" fill-rule="evenodd"/><path d="M 1146.750 451.750 L 1128 470.519 1128 530.006 L 1128 589.494 1147.008 570.485 L 1166.016 551.477 1165.758 492.229 L 1165.500 432.980 1146.750 451.750 M 936 532.500 L 936 593 1030 593 L 1124 593 1124 532.500 L 1124 472 1030 472 L 936 472 936 532.500" stroke="none" fill="#ed7d31" fill-rule="evenodd"/><path d="M 477.741 20.759 L 457 41.517 457 105.259 L 457 169 554.259 169 L 651.518 169 672.259 148.241 L 693 127.483 693 63.741 L 693 0 595.741 0 L 498.482 0 477.741 20.759 M 481.500 22 L 462.520 41 556.020 41 L 649.520 41 668.500 22 L 687.480 3 593.980 3 L 500.480 3 481.500 22 M 670.250 25.250 L 651 44.519 651 103.759 C 651 136.342, 651.342 163, 651.760 163 C 652.178 163, 660.956 154.555, 671.268 144.232 L 690.016 125.465 689.758 65.723 L 689.500 5.980 670.250 25.250 M 460 104.995 L 460 166 554.508 166 L 649.015 166 648.758 105.250 L 648.500 44.500 554.250 44.245 L 460 43.990 460 104.995 M 489.240 245.259 C 478.658 255.852, 470 264.852, 470 265.259 C 470 265.667, 512.192 266, 563.759 266 L 657.519 266 677.500 246 L 697.481 226 602.981 226 L 508.481 226 489.240 245.259 M 468 328.495 L 468 390 563.008 390 L 658.015 390 657.758 328.750 L 657.500 267.500 562.750 267.245 L 468 266.990 468 328.495 M 953.741 447.759 L 933 468.517 933 532.259 L 933 596 1030.259 596 L 1127.518 596 1148.259 575.241 L 1169 554.483 1169 490.741 L 1169 427 1071.741 427 L 974.482 427 953.741 447.759 M 957 449.500 L 937.519 469 1031.458 469 L 1125.397 469 1144.948 449.507 L 1164.500 430.014 1070.490 430.007 L 976.481 430 957 449.500 M 1146.250 451.274 L 1127 470.617 1127 531.055 L 1127 591.494 1146.508 571.986 L 1166.016 552.478 1165.758 492.205 L 1165.500 431.932 1146.250 451.274 M 936 532 L 936 593 1030.500 593 L 1125 593 1125 532 L 1125 471 1030.500 471 L 936 471 936 532" stroke="none" fill="#8cbd6b" fill-rule="evenodd"/><path d="M 482.500 22 L 463.520 41 556.520 41 L 649.520 41 668.500 22 L 687.480 3 594.480 3 L 501.480 3 482.500 22 M 670.750 24.750 L 652 43.519 652 103.006 L 652 162.494 671.008 143.485 L 690.016 124.477 689.758 65.229 L 689.500 5.980 670.750 24.750 M 460 105.500 L 460 166 554 166 L 648 166 648 105.500 L 648 45 554 45 L 460 45 460 105.500 M 320.200 648.200 C 319.397 649.003, 319 653.467, 319 661.700 C 319 668.465, 318.599 674, 318.109 674 C 317.619 674, 315.257 673.110, 312.859 672.022 C 302.177 667.175, 290.156 672.199, 285.443 683.482 C 284.528 685.673, 283.544 690.897, 283.256 695.092 C 281.517 720.473, 296.995 734.798, 316.122 725.510 C 319.686 723.780, 319.796 723.789, 322.924 726.102 C 325.888 728.293, 326.286 728.350, 328.802 726.938 L 331.500 725.424 331.762 688.262 L 332.024 651.100 329.824 649.050 C 327.389 646.782, 322.086 646.314, 320.200 648.200 M 640.667 647.667 C 640.300 648.033, 640 654.161, 640 661.283 C 640 675.991, 640.725 675.173, 631 671.429 C 623.032 668.361, 614.094 671.077, 608.645 678.221 C 602.927 685.718, 601.569 701.559, 605.627 713.433 C 608.021 720.439, 614.315 726.473, 620.643 727.830 C 626.055 728.991, 632.761 727.982, 636.352 725.466 C 639.088 723.550, 640.996 723.612, 642.498 725.667 C 643.923 727.615, 649.499 727.901, 651.283 726.117 C 652.195 725.205, 652.500 715.659, 652.500 688.055 C 652.500 653.226, 652.396 651.095, 650.595 649.105 C 648.734 647.048, 642.228 646.106, 640.667 647.667 M 874.280 650.999 C 870.016 652.756, 870.554 661.620, 875.071 664.038 C 880.019 666.686, 886 663.477, 886 658.174 C 886 653.093, 879.240 648.955, 874.280 650.999 M 174.200 653.200 C 172.524 654.876, 172.490 719.787, 174.163 723.458 C 175.898 727.266, 181.137 728.227, 198.032 727.838 C 214.013 727.470, 216 726.828, 216 722.033 C 216 716.855, 213.686 716, 199.671 716 L 187 716 187 705.607 C 187 697.052, 187.280 695.107, 188.582 694.607 C 189.452 694.273, 194.332 694, 199.427 694 C 207.131 694, 208.969 693.692, 210.345 692.171 C 212.651 689.623, 212.412 687.321, 209.545 684.455 C 207.264 682.173, 206.380 682, 197.007 682 L 186.922 682 187.211 673.250 L 187.500 664.500 199.957 664.218 C 209.758 663.995, 212.796 663.589, 214.207 662.313 C 216.557 660.186, 216.473 657.871, 213.927 654.635 L 211.855 652 193.627 652 C 180.784 652, 175.046 652.354, 174.200 653.200 M 494.571 653.571 C 493.206 654.937, 493 659.510, 493 688.516 L 493 721.888 495.413 724.694 L 497.827 727.500 515.502 727.500 C 532.871 727.500, 533.210 727.459, 535.088 725.139 C 537.476 722.190, 537.468 721.865, 534.927 718.635 C 532.879 716.031, 532.702 716, 519.927 716 L 507 716 507 705.607 C 507 697.052, 507.280 695.107, 508.582 694.607 C 509.452 694.273, 514.370 694, 519.510 694 C 526.674 694, 529.224 693.633, 530.429 692.429 C 532.806 690.051, 532.344 686.416, 529.365 684.073 C 527.104 682.294, 525.331 682, 516.865 682 L 507 682 507 673.607 C 507 666.876, 507.313 665.094, 508.582 664.607 C 509.452 664.273, 515.270 664, 521.510 664 C 530.492 664, 533.185 663.672, 534.429 662.429 C 536.680 660.177, 536.367 656.693, 533.686 654.174 C 531.490 652.112, 530.466 652, 513.757 652 C 499.077 652, 495.881 652.262, 494.571 653.571 M 684.035 653.934 C 682.525 656.756, 682.751 658.413, 685.042 661.327 C 686.923 663.717, 687.777 663.946, 695.792 664.212 L 704.500 664.500 704.765 693.900 L 705.031 723.299 707.567 725.650 C 710.233 728.121, 711.131 728.340, 714.687 727.386 C 718.468 726.372, 719 722.202, 719 693.551 C 719 673.767, 719.326 666.074, 720.200 665.200 C 720.936 664.464, 724.533 664, 729.500 664 C 734.467 664, 738.064 663.536, 738.800 662.800 C 740.742 660.858, 740.182 656.520, 737.686 654.174 C 735.436 652.061, 734.667 652, 710.221 652 C 686.379 652, 685.017 652.101, 684.035 653.934 M 373 664.443 L 373 670.885 368.750 671.193 C 364.968 671.466, 364.466 671.797, 364.188 674.201 C 363.747 678.029, 365.526 680.775, 369.536 682.451 L 373 683.898 373.054 699.199 C 373.118 717.051, 374.399 722.005, 379.916 725.723 C 385.239 729.309, 396.528 728.654, 399.235 724.600 C 400.520 722.675, 399.996 719.575, 397.975 717.149 C 396.212 715.033, 395.691 714.912, 392.758 715.939 C 389.858 716.954, 389.305 716.840, 387.724 714.897 C 386.172 712.990, 385.983 710.873, 386.224 698.107 L 386.500 683.500 391.769 682.857 C 397.793 682.122, 400 680.699, 400 677.552 C 400 673.813, 396.002 671, 390.686 671 L 386 671 386 667.135 C 386 661.237, 382.962 658, 377.427 658 L 373 658 373 664.443 M 837 664.443 L 837 670.885 832.750 671.193 C 828.968 671.466, 828.466 671.797, 828.188 674.201 C 827.747 678.029, 829.526 680.775, 833.536 682.451 L 837 683.898 837.054 699.199 C 837.118 717.051, 838.399 722.005, 843.916 725.723 C 849.239 729.309, 860.528 728.654, 863.235 724.600 C 864.520 722.675, 863.996 719.575, 861.975 717.149 C 860.255 715.085, 859.647 714.927, 856.980 715.857 C 850.611 718.078, 850.032 716.572, 850.014 697.719 C 850.004 687.543, 850.327 683.843, 851.250 683.576 C 851.938 683.377, 854.742 682.829, 857.483 682.357 C 861.655 681.639, 862.621 681.055, 863.421 678.765 C 864.216 676.487, 863.981 675.608, 862.014 673.515 C 860.141 671.521, 858.679 671, 854.956 671 L 850.260 671 849.748 666.459 C 849.051 660.270, 846.795 658, 841.345 658 L 837 658 837 664.443 M 248 670.682 C 247.175 670.970, 244.754 672.082, 242.620 673.155 L 238.739 675.104 236.479 672.980 C 234.888 671.486, 233.224 670.952, 230.859 671.178 L 227.500 671.500 227.234 697.664 L 226.967 723.829 229.690 725.971 C 231.586 727.462, 233.186 727.927, 234.957 727.502 C 239.614 726.382, 240 724.807, 240 706.925 L 240 690.233 243.975 686.642 C 250.264 680.960, 255.407 680.639, 258.737 685.721 C 260.101 687.803, 260.523 691.767, 260.960 706.598 C 261.258 716.715, 261.947 725.343, 262.500 725.882 C 264.698 728.028, 268.596 728.148, 271.063 726.147 C 273.484 724.183, 273.500 724.051, 273.458 706.335 C 273.414 687.494, 272.575 682.272, 268.825 677.505 C 264.758 672.334, 253.671 668.702, 248 670.682 M 420.759 671.423 C 408.888 675.660, 403.204 685.948, 404.223 701.354 C 405.343 718.288, 414.663 728.212, 429.500 728.270 C 438.702 728.305, 443.569 726.527, 448.907 721.180 C 455.168 714.908, 457.406 707.962, 456.813 696.650 C 456.101 683.090, 450.182 674.966, 438.438 671.431 C 432.567 669.664, 425.695 669.661, 420.759 671.423 M 564.476 672.462 C 559.641 674.910, 558.172 674.776, 555.898 671.681 C 555.567 671.230, 553.542 671.005, 551.398 671.181 L 547.500 671.500 547.234 697.664 L 546.967 723.829 549.618 725.914 C 552.783 728.404, 554.792 728.534, 557.777 726.443 C 559.926 724.938, 560 724.322, 560 707.826 L 560 690.765 563.817 686.947 C 568.404 682.361, 572.338 681.118, 575.916 683.126 C 580.402 685.644, 580.967 688.233, 581.017 706.500 C 581.070 725.890, 581.547 727.400, 587.624 727.400 C 593.528 727.400, 594 725.908, 594 707.252 C 594 683.452, 591.956 677.545, 581.971 672.485 C 575.768 669.342, 570.652 669.335, 564.476 672.462 M 749.764 670.996 C 742.453 673.197, 736.530 679.343, 733.993 687.362 C 733.244 689.728, 732.929 694.822, 733.178 700.514 C 733.521 708.370, 734.043 710.704, 736.557 715.619 C 741.824 725.917, 752.446 730.185, 767 727.851 C 772.895 726.905, 775.089 726.060, 777.250 723.901 C 780.534 720.620, 780.672 719.081, 777.960 715.954 L 775.921 713.603 769.546 715.301 C 756.454 718.790, 749.888 717.109, 747.162 709.571 C 744.935 703.412, 745.937 703, 763.122 703 C 776.667 703, 778.179 702.821, 780 701 C 784.103 696.897, 781.505 683.839, 775.364 677.697 C 769.165 671.499, 757.893 668.548, 749.764 670.996 M 799.500 671.441 C 791.493 674.394, 787.527 682.139, 789.924 690.140 C 791.676 695.987, 795.520 699.595, 805 704.290 C 814.634 709.061, 815.986 711.293, 811.420 714.885 C 807.950 717.614, 801.037 717.653, 795.141 714.978 C 789.124 712.248, 788 712.417, 788 716.050 C 788 720.036, 790.242 724.264, 793.165 725.789 C 799.321 729.001, 812.136 729.167, 817.777 726.107 C 820.927 724.398, 824.743 719.548, 825.978 715.685 C 828.787 706.899, 824.617 700.542, 812.318 694.860 C 803.949 690.993, 801.408 688.439, 802.502 684.993 C 803.348 682.327, 808.922 680.931, 813.701 682.188 C 822.012 684.374, 824.976 683.024, 823.631 677.667 C 822.208 671.995, 807.963 668.320, 799.500 671.441 M 915.476 672.462 C 910.641 674.910, 909.172 674.776, 906.898 671.681 C 906.567 671.230, 904.542 671.005, 902.398 671.181 L 898.500 671.500 898.234 697.664 L 897.967 723.829 900.618 725.914 C 903.725 728.358, 905.878 728.540, 908.559 726.583 C 910.318 725.300, 910.547 723.507, 911 707.504 L 911.500 689.842 915.201 686.452 C 919.783 682.256, 923.491 681.204, 926.916 683.126 C 931.402 685.644, 931.967 688.233, 932.017 706.500 C 932.070 725.809, 932.564 727.400, 938.506 727.400 C 944.353 727.400, 944.500 726.867, 944.500 705.698 C 944.500 681.175, 943.296 677.752, 932.783 672.401 C 926.771 669.341, 921.605 669.359, 915.476 672.462 M 966.655 671.475 C 956.975 674.886, 952.752 684.766, 956.141 696.077 C 957.083 699.221, 956.996 700.489, 955.641 703.344 C 953.591 707.664, 953.548 712.225, 955.521 716.040 C 956.958 718.820, 956.897 719.199, 954.393 722.983 C 952.149 726.373, 951.819 727.763, 952.232 732.067 C 952.848 738.471, 955.308 741.867, 961.501 744.859 C 965.602 746.840, 967.912 747.213, 975.942 747.192 C 986.616 747.164, 990.780 745.888, 996.449 740.911 C 1000.440 737.406, 1002.493 731.545, 1001.437 726.666 C 999.553 717.965, 992.352 713.863, 977.531 713.050 C 968.776 712.569, 967.476 712.265, 967.163 710.623 C 966.835 708.905, 967.274 708.804, 972.317 709.434 C 986.836 711.248, 998.006 701.825, 996.756 688.817 C 996.326 684.336, 996.524 683.763, 999.144 681.898 C 1002.430 679.558, 1002.853 676.278, 1000.250 673.310 C 998.712 671.557, 996.801 671.242, 984.500 670.717 C 973.997 670.269, 969.540 670.458, 966.655 671.475 M 872.607 672.582 C 872.273 673.452, 872 685.086, 872 698.436 L 872 722.708 874.452 725.354 C 877.250 728.373, 879.586 728.679, 882.777 726.443 C 884.973 724.906, 885 724.584, 885 699.982 C 885 675.650, 884.950 675.031, 882.811 673.039 C 880.100 670.513, 873.514 670.218, 872.607 672.582 M 973.500 681.749 C 970.423 682.466, 969.121 683.901, 968.060 687.744 C 967.345 690.334, 967.449 692.139, 968.452 694.539 C 971.898 702.786, 984 698.490, 984 689.020 C 984 683.673, 979.276 680.402, 973.500 681.749 M 302.353 683.926 C 298.312 686.390, 296.535 691.493, 296.582 700.500 C 296.621 708.096, 298.840 714.309, 302.144 716.077 C 305.248 717.738, 310.611 716.052, 314.942 712.053 L 319 708.307 319 698.841 C 319 689.802, 318.876 689.258, 316.250 686.809 C 310.653 681.589, 307.320 680.898, 302.353 683.926 M 425.030 683.222 C 415.603 688.210, 414.417 709.276, 423.217 715.439 C 428.234 718.953, 437.824 716.127, 441.369 710.091 C 442.408 708.321, 443.462 704.108, 443.744 700.599 C 444.662 689.159, 440.817 683.025, 432.283 682.314 C 429.502 682.082, 426.466 682.463, 425.030 683.222 M 622.514 684.168 C 618.619 687.232, 616.858 692.198, 616.883 700.051 C 616.934 716.309, 624.753 721.251, 635.482 711.807 L 640 707.830 639.978 699.165 C 639.953 689.529, 639.134 687.760, 633 684.097 C 628.544 681.437, 625.964 681.454, 622.514 684.168 M 751.954 683.282 C 749.805 684.975, 747 689.188, 747 690.723 C 747 691.682, 749.740 692, 758 692 C 768.469 692, 769 691.900, 769 689.923 C 769 688.781, 767.685 686.531, 766.077 684.923 C 763.640 682.486, 762.352 682.005, 758.327 682.032 C 755.672 682.049, 752.804 682.612, 751.954 683.282 M 967.576 726.333 C 964.775 729.134, 964.207 733.097, 966.351 734.876 C 968.482 736.645, 976.133 737.311, 980.575 736.114 C 985.654 734.747, 989.439 730.957, 988.543 728.136 C 987.765 725.686, 986.586 725.296, 977.326 724.428 C 970.519 723.791, 970.021 723.888, 967.576 726.333" stroke="none" fill="#000000" fill-rule="evenodd"/><path d="M 23.240 21.259 C 12.658 31.852, 4 40.852, 4 41.259 C 4 41.667, 46.192 42, 97.759 42 L 191.519 42 211.509 21.750 L 231.500 1.500 211.491 21.250 L 191.482 41 98 41 L 4.519 41 24 21.500 C 34.714 10.775, 43.256 2, 42.981 2 C 42.706 2, 33.823 10.667, 23.240 21.259 M 389 44.258 L 389 55 318.500 55 L 248 55 248 78.500 L 248 102 318.466 102 L 388.932 102 389.216 112.512 L 389.500 123.024 411.750 100.754 L 434 78.484 411.500 56 L 389 33.517 389 44.258 M 2 105 L 2 166 96.500 166 L 191 166 191 105 L 191 44 96.500 44 L 2 44 2 105 M 730 81.445 L 730 109 795.750 109.015 C 851.026 109.027, 862.527 109.272, 867.944 110.548 C 883.543 114.225, 896.778 127.470, 900.459 143.088 C 902.667 152.457, 902.708 234.861, 900.508 243.307 C 896.991 256.812, 888.686 266.860, 876.055 272.892 L 868.500 276.500 826.750 276.791 L 785 277.083 785 263.794 L 785 250.505 757.752 277.752 L 730.505 305 757.752 332.248 L 785 359.495 785 345.804 L 785 332.113 829.750 331.764 C 871.961 331.435, 874.938 331.293, 882.224 329.255 C 916.392 319.700, 942.495 294.660, 952.353 261.983 C 956.727 247.482, 957.165 240.080, 956.767 187.439 C 956.396 138.509, 956.396 138.498, 953.816 128.989 C 944.036 92.932, 918.134 67.025, 882.011 57.169 L 872.500 54.573 801.250 54.232 L 730 53.890 730 81.445 M 277.500 292.467 C 267.063 294.122, 262.600 295.392, 253.031 299.428 C 229.147 309.501, 208.757 330.772, 199.669 355.098 C 193.604 371.332, 193.497 372.651, 193.529 431 L 193.559 484.500 196.280 494.500 C 206.523 532.134, 235.086 559.344, 272.500 567.106 C 280.443 568.754, 286.402 568.975, 323.250 568.987 L 365 569 365 582.748 L 365 596.495 392.248 569.248 L 419.495 542 392.248 514.752 L 365 487.505 365 500.752 L 365 514 325.182 514 C 282.090 514, 280.288 513.814, 270.557 508.376 C 260.175 502.573, 251.225 490.005, 249.005 478.114 C 248.429 475.024, 248.006 454.338, 248.015 429.614 C 248.031 381.505, 248.395 378.034, 254.459 368.088 C 258.647 361.219, 263.827 356.154, 270.855 352.052 C 281.062 346.097, 281.976 346.031, 354.250 346.015 L 420 346 420 318.500 L 420 291 352.750 291.099 C 303.712 291.171, 283.333 291.542, 277.500 292.467 M 658.005 469.495 L 638.529 488.990 543.515 489.250 L 448.500 489.510 543.509 489.755 L 638.519 490 658.500 470 C 669.490 459, 678.256 450, 677.981 450 C 677.706 450, 668.717 458.773, 658.005 469.495 M 658.750 471.750 L 639 491.518 639 552.506 L 639 613.494 659.008 593.486 L 679.016 573.478 678.758 512.730 L 678.500 451.981 658.750 471.750 M 871 489.258 L 871 500 800.500 500 L 730 500 730 523.500 L 730 547 800.466 547 L 870.932 547 871.216 557.512 L 871.500 568.024 893.750 545.754 L 916 523.484 893.500 501 L 871 478.517 871 489.258 M 542.242 491.750 L 636.985 492.010 637.250 553.255 L 637.516 614.500 637.758 552.750 L 638 491 542.750 491.245 L 447.500 491.490 542.242 491.750" stroke="none" fill="#4472c4" fill-rule="evenodd"/><path d="M 957 449.500 L 937.519 469 1031.458 469 L 1125.397 469 1144.948 449.507 L 1164.500 430.014 1070.490 430.007 L 976.481 430 957 449.500 M 1146.490 451.250 L 1127.500 470.500 1146.750 451.510 C 1157.338 441.065, 1166 432.403, 1166 432.260 C 1166 431.548, 1164.134 433.365, 1146.490 451.250 M 1029.742 471.750 L 1123.985 472.010 1124.250 532.755 L 1124.516 593.500 1124.758 532.250 L 1125 471 1030.250 471.245 L 935.500 471.490 1029.742 471.750 M 1127.242 530.990 L 1127 591.481 1146.500 572 C 1157.225 561.286, 1166 552.294, 1166 552.019 C 1166 551.745, 1157.454 560.057, 1147.008 570.492 L 1128.016 589.464 1127.750 529.982 L 1127.484 470.500 1127.242 530.990" stroke="none" fill="#ea9157" fill-rule="evenodd"/><path d="M 20.741 20.759 L 0 41.517 0 104.759 L 0 168 96.759 168 L 193.518 168 214.259 147.241 L 235 126.483 235 63.241 L 235 0 138.241 0 L 41.482 0 20.741 20.759 M 23.240 21.259 C 12.658 31.852, 4 40.852, 4 41.259 C 4 41.667, 46.192 42, 97.759 42 L 191.519 42 211.500 22 L 231.481 2 136.981 2 L 42.481 2 23.240 21.259 M 481.490 22.250 L 462.500 41.500 481.750 22.510 C 492.337 12.065, 501 3.403, 501 3.260 C 501 2.548, 499.134 4.365, 481.490 22.250 M 386 39.757 L 386 53 316 53 L 246 53 246 78.500 L 246 104 315.971 104 L 385.942 104 386.221 117.010 L 386.500 130.020 412.250 104.253 L 438 78.486 412 52.500 L 386 26.514 386 39.757 M 389 44.258 L 389 55 318.500 55 L 248 55 248 78.500 L 248 102 318.466 102 L 388.932 102 389.216 112.512 L 389.500 123.024 411.750 100.754 L 434 78.484 411.500 56 L 389 33.517 389 44.258 M 2 105 L 2 166 96.500 166 L 191 166 191 105 L 191 44 96.500 44 L 2 44 2 105 M 553.742 44.747 L 647.985 45.010 648.254 105.255 L 648.523 165.500 648.512 105 L 648.500 44.500 554 44.492 L 459.500 44.485 553.742 44.747 M 651.242 103.250 C 651.109 136.113, 651.342 163, 651.760 163 C 652.178 163, 661.065 154.338, 671.510 143.750 L 690.500 124.500 671.258 143.482 L 652.016 162.464 651.750 102.982 L 651.484 43.500 651.242 103.250 M 728 81.937 L 728 111.948 798.250 112.224 L 868.500 112.500 875.062 115.609 C 883.597 119.654, 891.346 127.403, 895.391 135.938 L 898.500 142.500 898.500 193.051 L 898.500 243.603 894.734 251.223 C 888.783 263.264, 877.984 271.563, 865.114 273.986 C 862.105 274.552, 843.894 275, 823.864 275 L 788 275 788 259.256 L 788 243.512 757.500 274 L 727 304.488 757.250 334.752 L 787.500 365.017 787.776 350.008 L 788.052 335 823.776 334.992 C 843.424 334.987, 863.550 334.526, 868.500 333.968 C 910.275 329.253, 943.127 301.582, 955.724 260.500 L 958.483 251.500 958.492 194 C 958.499 141.241, 958.348 135.923, 956.651 129.500 C 946.931 92.699, 920.182 65.457, 883.303 54.801 C 875.569 52.566, 874.846 52.543, 801.750 52.236 L 728 51.927 728 81.937 M 730 81.445 L 730 109 795.750 109.015 C 851.026 109.027, 862.527 109.272, 867.944 110.548 C 883.543 114.225, 896.778 127.470, 900.459 143.088 C 902.667 152.457, 902.708 234.861, 900.508 243.307 C 896.991 256.812, 888.686 266.860, 876.055 272.892 L 868.500 276.500 826.750 276.791 L 785 277.083 785 263.794 L 785 250.505 757.752 277.752 L 730.505 305 757.752 332.248 L 785 359.495 785 345.804 L 785 332.113 829.750 331.764 C 871.961 331.435, 874.938 331.293, 882.224 329.255 C 916.392 319.700, 942.495 294.660, 952.353 261.983 C 956.727 247.482, 957.165 240.080, 956.767 187.439 C 956.396 138.509, 956.396 138.498, 953.816 128.989 C 944.036 92.932, 918.134 67.025, 882.011 57.169 L 872.500 54.573 801.250 54.232 L 730 53.890 730 81.445 M 486.741 244.759 L 466 265.517 466 328.759 L 466 392 562.759 392 L 659.518 392 680.259 371.241 L 701 350.483 701 287.241 L 701 224 604.241 224 L 507.482 224 486.741 244.759 M 489.240 245.259 C 478.658 255.852, 470 264.852, 470 265.259 C 470 265.667, 512.192 266, 563.759 266 L 657.519 266 677.500 246 L 697.481 226 602.981 226 L 508.481 226 489.240 245.259 M 468 328.495 L 468 390 563.008 390 L 658.015 390 657.758 328.750 L 657.500 267.500 562.750 267.245 L 468 266.990 468 328.495 M 277.500 289.715 C 251.671 293.287, 225.119 309.559, 209.574 331.344 C 203.550 339.786, 196.724 354.370, 193.821 365 C 191.521 373.424, 191.500 374.003, 191.500 430 C 191.500 485.482, 191.540 486.647, 193.747 494.654 C 202.190 525.297, 220.924 548.209, 248.414 561.512 C 267.237 570.621, 277.402 572, 325.724 572 L 362 572 362 586.500 C 362 594.475, 362.340 601, 362.756 601 C 363.172 601, 376.897 587.610, 393.256 571.244 L 423 541.488 393.244 511.744 C 376.878 495.385, 363.153 482, 362.744 482 C 362.335 482, 362 488.750, 362 497 L 362 512 326.136 512 C 306.106 512, 287.895 511.552, 284.886 510.986 C 272.016 508.563, 261.217 500.264, 255.266 488.223 L 251.500 480.604 251.500 430.052 L 251.500 379.500 254.609 372.938 C 258.600 364.517, 265.998 357.111, 274.698 352.827 L 281.456 349.500 351.728 349.224 L 422 348.948 422 318.974 L 422 289 351.250 289.150 C 312.337 289.232, 279.150 289.486, 277.500 289.715 M 277.500 292.467 C 267.063 294.122, 262.600 295.392, 253.031 299.428 C 229.147 309.501, 208.757 330.772, 199.669 355.098 C 193.604 371.332, 193.497 372.651, 193.529 431 L 193.559 484.500 196.280 494.500 C 206.523 532.134, 235.086 559.344, 272.500 567.106 C 280.443 568.754, 286.402 568.975, 323.250 568.987 L 365 569 365 582.748 L 365 596.495 392.248 569.248 L 419.495 542 392.248 514.752 L 365 487.505 365 500.752 L 365 514 325.182 514 C 282.090 514, 280.288 513.814, 270.557 508.376 C 260.175 502.573, 251.225 490.005, 249.005 478.114 C 248.429 475.024, 248.006 454.338, 248.015 429.614 C 248.031 381.505, 248.395 378.034, 254.459 368.088 C 258.647 361.219, 263.827 356.154, 270.855 352.052 C 281.062 346.097, 281.976 346.031, 354.250 346.015 L 420 346 420 318.500 L 420 291 352.750 291.099 C 303.712 291.171, 283.333 291.542, 277.500 292.467 M 466.741 468.759 L 446 489.517 446 552.759 L 446 616 542.759 616 L 639.518 616 660.259 595.241 L 681 574.483 681 511.241 L 681 448 584.241 448 L 487.482 448 466.741 468.759 M 468.500 470 L 448.519 490 543.519 490 L 638.519 490 658.500 470 L 678.481 450 583.481 450 L 488.481 450 468.500 470 M 658.750 471.750 L 639 491.518 639 552.506 L 639 613.494 659.008 593.486 L 679.016 573.478 678.758 512.730 L 678.500 451.981 658.750 471.750 M 868 484.757 L 868 498 798 498 L 728 498 728 523.500 L 728 549 797.971 549 L 867.942 549 868.221 562.010 L 868.500 575.020 894.250 549.253 L 920 523.486 894 497.500 L 868 471.514 868 484.757 M 871 489.258 L 871 500 800.500 500 L 730 500 730 523.500 L 730 547 800.466 547 L 870.932 547 871.216 557.512 L 871.500 568.024 893.750 545.754 L 916 523.484 893.500 501 L 871 478.517 871 489.258 M 448 552.500 L 448 614 543 614 L 638 614 638 552.500 L 638 491 543 491 L 448 491 448 552.500" stroke="none" fill="#41688b" fill-rule="evenodd"/></svg>